<svg width="32" height="32" viewBox="0 0 32 32" fill="none" xmlns="http://www.w3.org/2000/svg">
  <!-- 원형 배경 -->
  <circle cx="16" cy="16" r="15" fill="#3B82F6" stroke="#2563EB" stroke-width="2"/>
  
  <!-- 강아지 귀 (오른쪽) -->
  <path d="M22 8C23.5 5.5 26 6 27 7.5C28 9 27.5 12 26 13C24.5 14 22 12.5 22 8Z" fill="#FBBF24"/>
  
  <!-- 강아지 귀 (왼쪽) -->
  <path d="M10 8C8.5 5.5 6 6 5 7.5C4 9 4.5 12 6 13C7.5 14 10 12.5 10 8Z" fill="#FBBF24"/>
  
  <!-- 강아지 얼굴 -->
  <circle cx="16" cy="15" r="8" fill="#FBBF24"/>
  
  <!-- 고양이 수염 (왼쪽) -->
  <line x1="8" y1="16" x2="3" y2="15" stroke="white" stroke-width="1"/>
  <line x1="8" y1="18" x2="3" y2="18" stroke="white" stroke-width="1"/>
  <line x1="8" y1="20" x2="4" y2="21" stroke="white" stroke-width="1"/>
  
  <!-- 고양이 수염 (오른쪽) -->
  <line x1="24" y1="16" x2="29" y2="15" stroke="white" stroke-width="1"/>
  <line x1="24" y1="18" x2="29" y2="18" stroke="white" stroke-width="1"/>
  <line x1="24" y1="20" x2="28" y2="21" stroke="white" stroke-width="1"/>
  
  <!-- 눈 (왼쪽) -->
  <circle cx="13" cy="13" r="1.5" fill="#1E3A8A"/>
  
  <!-- 눈 (오른쪽) -->
  <circle cx="19" cy="13" r="1.5" fill="#1E3A8A"/>
  
  <!-- 코 -->
  <circle cx="16" cy="16" r="1.5" fill="#1E3A8A"/>
  
  <!-- 입 -->
  <path d="M13 18.5C14.3333 20 17.6667 20 19 18.5" stroke="#1E3A8A" stroke-width="1" stroke-linecap="round"/>
  
  <!-- 청진기 -->
  <circle cx="16" cy="22" r="2" fill="#EF4444" stroke="white" stroke-width="1"/>
  <path d="M16 22V25" stroke="white" stroke-width="1"/>
  <path d="M14 25H18" stroke="white" stroke-width="1"/>
</svg> 